General
Unique ID                                : 235384134453076440451515448945851248217 (0xB11555D611AFFEF193ABA64C317C2E59)
Complete name                            : Captain.Underpants.The.First.Epic.Movie.2017.UHD.BluRay.2160p.TrueHD.Atmos.7.1.HEVC.REMUX-FraMeSToR.mkv
Format                                   : Matroska
Format version                           : Version 4
File size                                : 23.7 GiB
Duration                                 : 1 h 28 min
Overall bit rate mode                    : Variable
Overall bit rate                         : 38.2 Mb/s
Movie name                               : Captain Underpants: The First Epic Movie 4K
Encoded date                             : UTC 2017-11-17 11:14:05
Writing application                      : mkvmerge v17.0.0 ('Be Ur Friend') 64-bit
Writing library                          : libebml v1.3.5 + libmatroska v1.4.8

Video
ID                                       : 1
Format                                   : HEVC
Format/Info                              : High Efficiency Video Coding
Format profile                           : Main 10@L5.1@High
HDR format                               : SMPTE ST 2086, HDR10 compatible
Codec ID                                 : V_MPEGH/ISO/HEVC
Duration                                 : 1 h 28 min
Bit rate                                 : 32.1 Mb/s
Width                                    : 3 840 pixels
Height                                   : 2 160 pixels
Display aspect ratio                     : 16:9
Frame rate mode                          : Constant
Frame rate                               : 23.976 (24000/1001) FPS
Color space                              : YUV
Chroma subsampling                       : 4:2:0 (Type 2)
Bit depth                                : 10 bits
Bits/(Pixel*Frame)                       : 0.161
Stream size                              : 19.9 GiB (84%)
Default                                  : Yes
Forced                                   : No
Color range                              : Limited
Color primaries                          : BT.2020
Transfer characteristics                 : PQ
Matrix coefficients                      : BT.2020 non-constant
Mastering display color primaries        : Display P3
Mastering display luminance              : min: 0.0050 cd/m2, max: 1000 cd/m2

Audio #1
ID                                       : 2
Format                                   : MLP FBA 16-ch
Format/Info                              : Meridian Lossless Packing FBA with 16-channel presentation
Commercial name                          : Dolby TrueHD with Dolby Atmos
Codec ID                                 : A_TRUEHD
Duration                                 : 1 h 28 min
Bit rate mode                            : Variable
Bit rate                                 : 5 335 kb/s
Maximum bit rate                         : 8 361 kb/s
Channel(s)                               : 8 channels
Channel layout                           : L R C LFE Ls Rs Lb Rb
Sampling rate                            : 48.0 kHz
Frame rate                               : 1 200.000 FPS (40 SPF)
Compression mode                         : Lossless
Stream size                              : 3.30 GiB (14%)
Title                                    : TrueHD Atmos 7.1
Language                                 : English
Default                                  : Yes
Forced                                   : No
Number of dynamic objects                : 13
Bed channel count                        : 1 channel
Bed channel configuration                : LFE

Audio #2
ID                                       : 3
Format                                   : AC-3
Format/Info                              : Audio Coding 3
Commercial name                          : Dolby Digital
Codec ID                                 : A_AC3
Duration                                 : 1 h 28 min
Bit rate mode                            : Constant
Bit rate                                 : 640 kb/s
Channel(s)                               : 6 channels
Channel layout                           : L R C LFE Ls Rs
Sampling rate                            : 48.0 kHz
Frame rate                               : 31.250 FPS (1536 SPF)
Compression mode                         : Lossy
Stream size                              : 406 MiB (2%)
Title                                    : AC-3 5.1
Language                                 : English
Service kind                             : Complete Main
Default                                  : No
Forced                                   : No

Text #1
ID                                       : 4
Format                                   : PGS
Codec ID                                 : S_HDMV/PGS
Codec ID/Info                            : Picture based subtitle format used on BDs/HD-DVDs
Duration                                 : 1 h 27 min
Bit rate                                 : 61.6 kb/s
Count of elements                        : 4246
Stream size                              : 38.5 MiB (0%)
Title                                    : English (SDH)
Language                                 : English
Default                                  : No
Forced                                   : No

Text #2
ID                                       : 5
Format                                   : PGS
Codec ID                                 : S_HDMV/PGS
Codec ID/Info                            : Picture based subtitle format used on BDs/HD-DVDs
Duration                                 : 1 h 27 min
Bit rate                                 : 42.9 kb/s
Count of elements                        : 2962
Stream size                              : 26.9 MiB (0%)
Title                                    : French
Language                                 : French
Default                                  : No
Forced                                   : No

Text #3
ID                                       : 6
Format                                   : PGS
Codec ID                                 : S_HDMV/PGS
Codec ID/Info                            : Picture based subtitle format used on BDs/HD-DVDs
Duration                                 : 1 h 27 min
Bit rate                                 : 44.0 kb/s
Count of elements                        : 2924
Stream size                              : 27.6 MiB (0%)
Title                                    : Spanish (Latin American)
Language                                 : Spanish
Default                                  : No
Forced                                   : No

Menu
00:00:00.000                             : en:Chapter 1
00:03:54.359                             : en:Chapter 2
00:06:58.918                             : en:Chapter 3
00:10:08.441                             : en:Chapter 4
00:12:58.653                             : en:Chapter 5
00:15:08.658                             : en:Chapter 6
00:17:44.981                             : en:Chapter 7
00:20:42.783                             : en:Chapter 8
00:23:45.257                             : en:Chapter 9
00:25:44.668                             : en:Chapter 10
00:29:26.264                             : en:Chapter 11
00:33:55.659                             : en:Chapter 12
00:38:24.177                             : en:Chapter 13
00:42:10.194                             : en:Chapter 14
00:46:12.061                             : en:Chapter 15
00:52:17.801                             : en:Chapter 16
00:55:02.841                             : en:Chapter 17
00:57:37.621                             : en:Chapter 18
01:00:57.445                             : en:Chapter 19
01:04:30.116                             : en:Chapter 20
01:08:24.934                             : en:Chapter 21
01:11:42.089                             : en:Chapter 22
01:15:44.373                             : en:Chapter 23
01:19:03.322                             : en:Chapter 24
